<svg width="40" height="38" viewBox="0 0 40 38" fill="none" xmlns="http://www.w3.org/2000/svg">
<path opacity="0.1" d="M20.7243 37.5C32.0161 37.5 41.1699 28.9182 41.1699 18.3321C41.1699 7.74604 32.0161 -0.835693 20.7243 -0.835693C9.43241 -0.835693 0.278564 7.74604 0.278564 18.3321C0.278564 28.9182 9.43241 37.5 20.7243 37.5Z" fill="white"/>
<path d="M20.7242 33.2404C29.5068 33.2404 36.6264 26.5658 36.6264 18.3321C36.6264 10.0985 29.5068 3.42383 20.7242 3.42383C11.9417 3.42383 4.82202 10.0985 4.82202 18.3321C4.82202 26.5658 11.9417 33.2404 20.7242 33.2404Z" fill="#1F084D"/>
<path d="M27.8779 16.4845C28.1892 14.5294 26.599 13.4752 24.4294 12.7766L25.1337 10.1272L23.4185 9.72574L22.737 12.3049C22.2826 12.1984 21.8215 12.0994 21.3592 12.0003L22.0509 9.40414L20.3221 9.00269L19.6179 11.651C19.2442 11.5712 18.875 11.4924 18.5195 11.4082V11.3997L16.1489 10.8449L15.6946 12.5668C15.6946 12.5668 16.9713 12.8416 16.944 12.8575C17.1819 12.8846 17.399 12.9979 17.5488 13.1733C17.6985 13.3487 17.7689 13.5722 17.7448 13.7957L16.944 16.8146C17.005 16.8289 17.0649 16.8467 17.1235 16.8679L16.9418 16.8264L15.8173 21.0539C15.7923 21.1277 15.7521 21.1962 15.6989 21.2553C15.6457 21.3145 15.5806 21.3633 15.5072 21.3988C15.4339 21.4343 15.3538 21.4559 15.2715 21.4623C15.1892 21.4687 15.1064 21.4599 15.0278 21.4362C15.046 21.4596 13.7784 21.1444 13.7784 21.1444L12.9242 22.9899L15.163 23.5127C15.5787 23.6107 15.9865 23.7129 16.3875 23.8098L15.6764 26.4891L17.395 26.8905L18.0992 24.2411C18.5695 24.3593 19.025 24.4701 19.4702 24.5744L18.7614 27.2121L20.4811 27.6136L21.1922 24.9397C24.1262 25.4604 26.3309 25.2506 27.2589 22.7631C27.4487 22.4121 27.5584 22.0279 27.5809 21.6349C27.6034 21.242 27.5382 20.849 27.3896 20.481C27.2409 20.113 27.0119 19.7781 26.7174 19.4978C26.4228 19.2174 26.0691 18.9978 25.6789 18.8528C26.2722 18.7408 26.8094 18.4478 27.2065 18.0196C27.6037 17.5914 27.8386 17.052 27.8745 16.4856L27.8779 16.4845ZM23.9478 21.6513C23.4174 23.6544 19.8201 22.5714 18.6535 22.2998L19.5986 18.7506C20.7651 19.0232 24.5033 19.5631 23.9478 21.6513ZM24.4794 16.4568C23.9944 18.2788 21.0014 17.3524 20.0313 17.1256L20.8867 13.9075C21.8567 14.1343 24.9849 14.5571 24.4794 16.4568Z" fill="white"/>
</svg>
