<svg width="39" height="38" viewBox="0 0 39 38" fill="none" xmlns="http://www.w3.org/2000/svg">
<path opacity="0.1" d="M21.1727 37.5C32.4645 37.5 41.6184 28.9182 41.6184 18.3321C41.6184 7.74604 32.4645 -0.835693 21.1727 -0.835693C9.88086 -0.835693 0.72702 7.74604 0.72702 18.3321C0.72702 28.9182 9.88086 37.5 21.1727 37.5Z" fill="white"/>
<path d="M21.1727 33.2404C29.9552 33.2404 37.0749 26.5658 37.0749 18.3321C37.0749 10.0985 29.9552 3.42383 21.1727 3.42383C12.3902 3.42383 5.27051 10.0985 5.27051 18.3321C5.27051 26.5658 12.3902 33.2404 21.1727 33.2404Z" fill="#1F084D"/>
<path d="M21.6714 7.13696V15.4121L29.1318 18.5376L21.6714 7.13696Z" fill="white" fill-opacity="0.6"/>
<path d="M21.6691 7.13696L14.2076 18.5376L21.6691 15.4121V7.13696Z" fill="white"/>
<path d="M21.6714 23.9002V29.5228L29.1363 19.8398L21.6714 23.9002Z" fill="white" fill-opacity="0.6"/>
<path d="M21.6691 29.5228V23.8992L14.2076 19.8398L21.6691 29.5228Z" fill="white"/>
<path d="M21.6714 22.5978L29.1318 18.5364L21.6714 15.4131V22.5978Z" fill="white" fill-opacity="0.2"/>
<path d="M14.2076 18.5364L21.6691 22.5978V15.4131L14.2076 18.5364Z" fill="white" fill-opacity="0.6"/>
</svg>
