<svg width="90" height="85" viewBox="0 0 90 85" fill="none" xmlns="http://www.w3.org/2000/svg">
<g clip-path="url(#clip0_1_488)">
<path d="M59.167 32.3425C59.2561 35.785 58.9442 39.1425 56.8056 42.075C55.9591 43.2225 54.8898 44.2 53.9097 45.2625C53.6869 45.5175 53.3305 45.9424 53.1522 46.1974C52.9295 46.2399 52.6622 46.58 52.4839 46.7075C50.5236 48.025 48.4741 48.2374 46.1128 48.4924C44.8653 48.6199 43.5733 48.45 42.2812 48.4075C42.103 48.11 41.9693 47.7699 41.702 47.4724C39.7862 45.2624 38.6724 42.67 38.5387 39.865C38.3605 36.125 38.4942 32.3425 38.4942 28.6025C38.4942 27.285 39.5189 26.18 40.9 25.9675C41.6129 25.8825 42.3703 25.8825 43.0832 25.7975C46.5583 25.3725 49.9444 25.7975 53.2859 26.8175C54.2215 27.115 55.1572 27.4975 56.0928 27.8375C56.4046 28.56 56.672 29.325 57.1175 30.005C57.7412 30.8125 58.4987 31.535 59.167 32.3425Z" fill="#EFBF87"/>
<path d="M59.167 33.15C58.4987 32.3425 57.7858 31.62 57.2066 30.7275C56.7611 30.09 56.5383 29.2825 56.2264 28.56C56.4492 27.4125 56.0037 26.5625 54.9344 26.0525C53.4196 25.33 51.9047 24.5225 50.3008 23.97C47.093 22.865 43.7515 22.865 40.3654 22.95C40.1426 22.8225 39.9199 22.61 39.6525 22.525C38.4496 22.015 37.5585 21.2075 36.9348 20.145C35.1081 17.17 36.4447 13.2175 39.7416 11.9425C39.9644 11.8575 40.1426 11.6875 40.3208 11.5175C43.6624 11.5175 46.9593 11.475 50.3008 11.475C52.6622 11.475 54.9789 11.475 57.3403 11.475C59.3006 11.475 60.5036 12.665 60.5036 14.62C60.5036 18.2325 60.459 21.845 60.5036 25.415C60.5036 27.455 60.1917 29.41 59.5234 31.3225C59.3897 31.9175 59.3006 32.555 59.167 33.15Z" fill="#1C1C1C"/>
<path d="M56.3155 55.165C58.4541 55.8875 60.5481 56.61 62.6867 57.29C63.1768 57.46 63.6669 57.5875 64.1569 57.7575C65.3153 58.31 66.6965 58.565 67.543 59.67C65.7609 61.4125 63.9787 63.1125 62.1966 64.855C61.1273 65.9175 60.5481 67.15 60.5481 68.6375C60.5481 70.1675 60.5481 71.74 60.5481 73.27C56.1819 73.27 51.8602 73.27 47.494 73.27C47.1375 69.36 46.7366 65.4075 46.3801 61.4975C47.4494 61.0725 47.0484 60.095 47.1821 59.3725C47.8504 59.925 48.5187 60.52 49.1424 61.0725C49.8998 61.71 50.6573 61.7525 51.3256 61.03C52.083 60.18 52.7958 59.245 53.5087 58.3525C54.5334 57.29 55.4245 56.2275 56.3155 55.165Z" fill="#370C89"/>
<path d="M41.9248 73.27C37.5585 73.27 33.2369 73.27 28.8706 73.27C28.8706 71.825 28.8261 70.38 28.8706 68.9775C28.9152 67.235 28.2914 65.8325 26.9994 64.6425C25.2618 63.0275 23.5688 61.3275 21.8757 59.7125C21.9203 59.6275 22.0094 59.5 22.0539 59.415C23.3014 58.82 24.5489 58.1825 25.841 57.6725C28.2469 56.78 30.6528 56.015 33.1032 55.2075C33.2369 55.335 33.4151 55.42 33.5487 55.59C34.9744 57.375 36.4002 59.2025 37.8704 60.945C38.6278 61.8375 39.4298 61.795 40.3209 60.9875C40.9446 60.435 41.5684 59.925 42.1921 59.415C42.3258 60.18 41.9248 61.115 42.9941 61.54C42.905 62.475 42.8159 63.41 42.7267 64.345C42.504 67.2775 42.1921 70.2525 41.9248 73.27Z" fill="#370C89"/>
<path d="M40.41 22.6525C43.7515 22.5675 47.1375 22.5675 50.3454 23.6725C51.9493 24.225 53.4196 24.99 54.9789 25.67C56.0482 26.18 56.4938 26.9875 56.271 28.135C55.3354 27.795 54.4443 27.4125 53.5087 27.115C50.2563 26.095 46.9593 25.7125 43.5287 26.1375C42.8158 26.2225 42.103 26.2225 41.3901 26.3075C40.0535 26.52 39.0288 27.5825 39.0288 28.9C39.0288 32.5975 38.8951 36.295 39.0734 39.9925C39.207 42.755 40.2763 45.305 42.1475 47.4725C42.3703 47.7275 42.504 48.0675 42.6822 48.4075C40.6327 48.365 38.8951 47.4725 37.1576 46.58C36.8011 46.41 36.5338 46.4525 36.1774 46.2825C35.9992 46.07 35.7764 45.645 35.5982 45.475C32.6131 43.0525 30.831 39.9925 30.4745 36.2525C30.3409 35.0625 30.3854 33.83 30.3409 32.64C30.9201 31.96 31.4102 31.195 32.0339 30.5575C32.8359 29.75 33.2814 28.8575 33.2369 27.7525C33.2369 26.945 33.2369 26.1375 33.2369 25.33C33.2369 24.14 33.5933 23.715 34.8408 23.5025C35.1527 23.46 35.4645 23.375 35.7764 23.3325C37.3358 23.0775 38.8506 22.865 40.41 22.6525Z" fill="#E5AE78"/>
<path d="M40.41 22.6525C38.8952 22.865 37.3358 23.0775 35.821 23.29C35.5091 23.3325 35.1972 23.4175 34.8854 23.46C33.6379 23.6725 33.2814 24.0975 33.2814 25.2875C33.2814 26.095 33.2814 26.9025 33.2814 27.71C33.326 28.815 32.8804 29.7075 32.0785 30.515C31.4547 31.1525 30.9201 31.875 30.3855 32.5975C29.9845 31.1525 29.4498 29.75 29.2716 28.2625C28.8261 24.65 28.3805 20.995 30.2072 17.595C32.3458 13.685 35.7764 11.645 40.41 11.5175C40.2318 11.645 40.0536 11.815 39.8308 11.9C36.4893 13.175 35.1527 17 36.9794 19.89C37.6477 20.91 38.5387 21.7175 39.6971 22.185C39.9644 22.3125 40.1872 22.4825 40.41 22.6525Z" fill="black"/>
<path d="M21.2074 73.27C20.45 72.7175 20.2273 71.995 20.2273 71.145C20.2718 68.7225 20.2273 66.3425 20.2273 63.92C20.2718 62.305 20.45 60.7325 21.9203 59.585C23.7915 61.2425 25.7964 62.9425 27.6677 64.6C29.0934 65.79 29.8063 67.235 29.7617 68.935C29.7172 70.38 29.7617 71.825 29.7617 73.2275C26.9103 73.27 24.0589 73.27 21.2074 73.27Z" fill="#2D0769"/>
<path d="M59.8798 73.27C59.8798 71.74 59.8798 70.1675 59.8798 68.6375C59.8798 67.15 60.5036 65.9175 61.662 64.855C63.5778 63.1125 65.5381 61.2425 67.4539 59.5C68.4786 60.265 69.0578 61.455 69.1024 62.6025C69.236 65.62 69.236 68.595 69.236 71.6125C69.236 72.335 68.8796 72.93 68.1222 73.27C65.3599 73.27 62.6421 73.27 59.8798 73.27Z" fill="#2D0769"/>
<path d="M53.3305 48.4925C53.3751 49.3425 53.4196 51.2975 53.4642 52.19C51.5929 53.2525 49.7217 54.315 47.8504 55.335C46.7366 55.93 45.6673 56.525 44.5535 57.12C43.3951 56.3975 42.1921 55.675 41.0337 54.995C39.3853 54.06 37.6922 53.125 35.9992 52.19C36.0438 51.34 36.0883 49.385 36.1329 48.4925C36.4447 48.62 36.8012 48.705 37.113 48.8325C41.3902 50.83 45.7564 51.085 50.2563 49.6825C51.281 49.385 52.3058 48.9175 53.3305 48.4925Z" fill="#E5AE78"/>
<path d="M44.2416 56.9925C45.4 56.355 46.5584 55.76 47.7167 55.1225C49.6771 54.0175 51.6375 52.9125 53.5978 51.8075C54.4889 51.7225 55.0235 52.19 55.3799 52.9125C55.7809 53.72 56.1819 54.5275 56.6274 55.335C55.6918 56.44 54.7116 57.5875 53.776 58.6925C53.0186 59.6275 52.2612 60.605 51.4592 61.4975C50.7464 62.2625 49.9444 62.22 49.1425 61.54C48.4296 60.945 47.7613 60.35 47.0484 59.755C46.1128 58.905 45.1772 58.0125 44.2416 57.1625C44.2416 57.0775 44.2416 57.035 44.2416 56.9925Z" fill="#2D0769"/>
<path d="M44.999 57.0775C44.999 57.12 44.999 57.205 44.999 57.2475C44.1525 58.14 43.306 59.0325 42.4594 59.925C41.7911 60.4775 41.1228 61.0725 40.4545 61.625C39.4744 62.475 38.6724 62.56 37.8259 61.5825C36.222 59.7125 34.7071 57.7575 33.1478 55.845C33.0141 55.675 32.8359 55.59 32.6577 55.42C33.0587 54.6125 33.5042 53.7625 33.9052 52.955C34.2616 52.2325 34.7962 51.765 35.7319 51.85C37.514 52.87 39.3407 53.8475 41.1228 54.8675C42.4594 55.5475 43.7069 56.3125 44.999 57.0775Z" fill="#2D0769"/>
<path d="M41.5238 73.27C41.8357 70.295 42.1921 67.2775 42.504 64.3025C42.5931 63.3675 42.6822 62.4325 42.8159 61.4975C44.1079 61.4975 45.4 61.4975 46.692 61.4975C47.1375 65.4075 47.5385 69.36 47.9841 73.27C45.8009 73.27 43.6624 73.27 41.5238 73.27Z" fill="#717386"/>
<path d="M53.3305 49.2149C52.3058 49.6399 51.281 50.1074 50.2118 50.4049C45.7119 51.8074 41.3456 51.5524 37.0685 49.5549C36.7566 49.4274 36.4447 49.2999 36.0883 49.2149C36.0883 48.1524 36.0438 47.1324 36.0438 46.0699C36.4002 46.2399 36.7566 46.3674 37.113 46.5374C38.1378 47.0899 39.2071 47.5574 40.3209 47.8974C41.5684 48.2374 42.905 48.2799 44.1525 48.3224C45.4445 48.3649 46.7811 48.3224 48.0732 48.1099C49.1425 47.8974 50.1672 47.5999 51.1474 47.1749C51.4593 47.0474 51.7266 46.8774 52.0384 46.7074C52.3058 46.5799 52.5285 46.3674 52.7959 46.2824C52.9741 46.1974 53.1968 46.1549 53.3751 46.1549C53.3751 46.6649 53.375 47.1749 53.3305 47.6849C53.3305 47.9399 53.3305 48.2374 53.3305 48.4924C53.375 48.4924 53.4196 49.1724 53.3305 49.2149Z" fill="#D19B6E"/>
<path d="M46.7811 61.4975C45.4 61.4975 44.0634 61.4975 42.6822 61.4975C41.3902 61.0725 41.8802 60.095 41.702 59.3725C42.6377 58.565 43.5733 57.715 44.5535 56.9075C45.6227 57.715 46.692 58.565 47.7613 59.3725C47.6276 60.095 48.0732 61.0725 46.7811 61.4975Z" fill="#5D5C6E"/>
<path d="M22.0985 59.33C22.0539 59.415 21.9648 59.5425 21.9203 59.6275C20.5837 60.775 20.2718 62.305 20.2273 63.8775C20.1827 66.3 20.2273 68.68 20.2273 71.1025C20.2273 71.9525 20.4055 72.675 21.1183 73.2275C16.0392 73.2275 11.0047 73.2275 5.9256 73.27C5.9256 71.06 5.88104 68.85 5.9256 66.64C5.97015 65.4925 5.43551 64.6425 4.54444 63.92C3.38605 63.0275 2.18311 62.1775 1.02472 61.285C1.91579 60.69 2.71775 60.01 3.65337 59.5C4.36623 59.075 5.16819 58.82 5.9256 58.48C8.06416 61.5825 11.6284 62.9 15.3709 61.965C17.4204 61.455 19.0689 60.265 20.3164 58.65C20.8956 58.905 21.4748 59.1175 22.0985 59.33Z" fill="#EDA55D"/>
<path d="M11.4057 32.9375C16.5739 31.8325 21.8312 35.36 22.9004 41.0125C23.5242 44.2425 24.0143 47.515 24.5935 50.7875C24.7717 51.68 25.1281 52.53 25.3509 53.38C25.6628 54.5275 25.44 55.1225 24.2816 55.505C22.2321 56.185 20.1827 56.7375 18.1332 57.3325C17.8214 56.95 17.554 56.525 17.2422 56.1425C17.1976 55.1225 17.1531 54.145 17.1085 53.125C18.6233 52.02 20.049 50.83 20.6728 48.96C20.851 48.45 20.9846 47.94 21.2074 47.43C21.6084 46.2825 21.1183 45.5175 20.1827 44.9225C19.4253 44.4125 18.7124 43.9025 17.955 43.435C15.7719 42.1175 13.4551 41.0975 10.871 40.6725C10.7819 40.5025 10.6928 40.29 10.5591 40.205C8.86611 39.2275 8.46513 36.21 9.66807 34.68C10.1582 34.0425 10.8265 33.49 11.4057 32.9375Z" fill="#1C1C1C"/>
<path d="M11.9403 32.81C11.3166 33.405 10.6483 33.915 10.1136 34.5525C8.86614 36.0825 9.26712 39.1 11.0938 40.0775C11.2275 40.1625 11.3166 40.375 11.4057 40.545C11.0047 40.8 10.4701 40.9275 10.2918 41.2675C9.22256 43.1375 7.57409 44.4125 5.61374 45.39C4.94543 45.73 4.58901 46.2825 4.76722 47.005C4.90088 47.6425 5.07909 48.28 5.34641 48.9175C6.05927 50.7025 7.48498 51.935 9.13346 53.04C9.13346 54.06 9.13346 55.0375 9.0889 56.0575C8.82158 56.44 8.59882 56.8225 8.3315 57.2475C6.14838 56.6525 3.96526 56.0575 1.78214 55.3775C0.623751 54.995 0.35643 54.4 0.712857 53.38C2.09401 49.5125 2.76232 45.5175 3.2524 41.4375C3.78704 37.1025 7.39587 33.5325 11.9403 32.81Z" fill="black"/>
<path d="M8.73246 56.355C8.86612 56.3975 8.99978 56.1 9.13344 56.1425C10.8265 56.5675 12.5195 57.0775 14.3016 56.695C15.3709 56.4825 16.4402 56.4825 17.5095 56.27C17.8214 56.6525 18.1332 56.8225 18.4006 57.2475C18.6679 57.5025 18.9352 57.8 19.2025 58.0125C19.5144 58.2675 20.049 58.5225 20.4055 58.7775C19.158 60.435 17.3758 62.0925 15.2818 62.6025C11.5393 63.5375 8.0196 61.625 5.83649 58.565C6.5939 58.055 8.46514 56.7375 8.73246 56.355Z" fill="#E5AF78"/>
<path d="M1.11383 61.3275C2.40587 62.22 3.74248 63.07 4.98997 63.9625C5.97015 64.6425 6.54934 65.4925 6.50479 66.6825C6.41568 68.8925 6.50479 71.1025 6.46024 73.3125C4.94542 73.3125 3.38605 73.3125 1.87123 73.3125C0.801951 73.3125 0.133649 72.7175 0.133649 71.825C0.133649 69.0625 0.0445425 66.3 0.178203 63.5375C0.222756 62.7725 0.801951 62.05 1.11383 61.3275Z" fill="#D38D54"/>
<path d="M21.0292 48.705C20.3609 50.6175 18.8906 51.85 17.2867 52.9975C15.2818 53.8475 13.2769 54.3575 11.0938 53.8475C10.9156 53.5925 10.7374 53.2525 10.47 53.04C9.44531 52.19 8.86612 51.085 8.64335 49.81C8.50969 49.045 8.64335 48.195 8.55424 47.43C8.50969 46.6225 8.73246 46.07 9.44531 45.645C9.84629 45.39 10.2027 45.0075 10.47 44.625C11.5839 43.18 11.6284 43.1375 13.366 43.86C13.4997 43.9025 13.6333 43.9875 13.767 44.03C16.5293 45.0925 18.8906 46.7925 21.0292 48.705Z" fill="#EFBF87"/>
<path d="M21.0292 48.875C18.8907 47.0475 16.6184 45.4325 13.9452 44.3275C13.8116 44.285 13.6779 44.2 13.5442 44.1575C11.8958 43.4775 11.8067 43.52 10.7374 44.9225C10.4255 45.305 10.1136 45.6875 9.71265 45.9425C8.9998 46.3675 8.77703 46.8775 8.82158 47.6425C8.86614 48.4075 8.77703 49.215 8.91069 49.9375C9.0889 51.17 9.6681 52.2325 10.6928 53.0825C10.9601 53.295 11.0938 53.5925 11.272 53.8475C10.4255 53.55 9.57899 53.295 8.68792 52.9975C7.084 51.935 5.7474 50.66 5.03454 48.875C4.81177 48.28 4.63356 47.6 4.45535 46.9625C4.32168 46.24 4.63356 45.6875 5.25731 45.3475C7.17311 44.37 8.73248 43.095 9.7572 41.225C9.93542 40.885 10.4701 40.715 10.8265 40.5025C13.4551 40.9275 15.861 41.99 18.0887 43.265C18.8907 43.7325 19.6035 44.285 20.4055 44.7525C21.3857 45.3475 21.8757 46.1125 21.4748 47.26C21.3857 47.855 21.2074 48.365 21.0292 48.875Z" fill="#E4AE77"/>
<path d="M8.73245 52.9975C9.57897 53.295 10.4255 53.55 11.3166 53.8475C13.4551 54.315 15.46 53.635 17.4204 52.785C17.4649 53.805 17.5095 55.42 17.554 56.44C16.4848 56.6525 15.4155 56.865 14.3462 57.0775C12.564 57.46 10.871 56.95 9.17799 56.525C9.04433 56.4825 8.91067 56.44 8.77701 56.3975C8.73245 55.4625 8.73245 54.0175 8.73245 52.9975Z" fill="#D19B6E"/>
<path d="M79.2606 55.0375C78.9932 55.335 78.7705 55.59 78.5031 55.8875C77.2111 56.1 75.8745 56.4824 74.5824 56.4824C73.5132 56.4824 72.4439 56.1 71.3746 55.8875C71.1073 55.675 70.84 55.4199 70.5726 55.2074C70.5726 54.3574 70.5726 53.55 70.6172 52.7C71.2409 52.9975 71.8201 53.2525 72.4439 53.55C74.627 54.3575 76.721 54.1025 78.7705 52.9125C78.9041 52.8275 79.0823 52.785 79.2606 52.7C79.2606 53.465 79.2606 54.2725 79.2606 55.0375Z" fill="#D19B6E"/>
<path d="M89.3296 72.4625C88.7059 73.185 87.8594 73.355 86.9238 73.3125C85.7208 73.27 84.4733 73.27 83.2704 73.27C83.2704 70.8475 83.1813 68.425 83.3149 66.0025C83.3595 65.2375 83.5822 64.3025 84.1169 63.7075C85.3644 62.305 86.8792 61.0725 88.2604 59.755C88.3495 59.67 88.4831 59.67 88.6168 59.67C88.8396 60.095 89.1069 60.5625 89.3296 60.9875C89.3296 64.8125 89.3296 68.6375 89.3296 72.4625Z" fill="#D38D54"/>
<path d="M83.6268 43.6475C83.805 45.9 83.6268 48.4075 82.112 50.2775C81.31 51.2975 80.1962 52.105 79.216 52.9975C79.0378 53.04 78.8596 53.0825 78.7259 53.1675C76.6765 54.1025 74.5824 54.315 72.3993 53.6775C71.9092 52.7 71.1073 51.7225 70.9736 50.7025C70.7063 48.4925 70.6617 46.1975 70.6617 43.945C70.6617 42.925 72.1766 41.565 73.2458 41.65C75.7854 41.905 78.3249 42.16 80.8645 42.5425C81.8892 42.755 82.7357 43.3075 83.6268 43.6475Z" fill="#EFBF87"/>
<path d="M88.6168 59.67C88.5277 59.7125 88.3495 59.7125 88.3049 59.755C86.9683 61.0725 85.5871 62.305 84.3842 63.7075C83.8941 64.3025 83.6713 65.195 83.6268 66.0025C83.5377 68.425 83.5822 70.8475 83.5822 73.27C81.1764 73.27 78.815 73.27 76.4091 73.27C76.3646 72.76 76.2755 72.25 76.2755 71.6975C76.1864 69.785 76.1864 67.915 76.0973 66.0025C76.0082 64.515 75.8745 62.985 75.7854 61.4975C76.6765 61.2 76.4091 60.435 76.4537 59.84C76.6765 60.01 76.8547 60.1375 77.0774 60.265C78.0131 60.9025 78.3249 60.8175 78.9041 59.84C79.5724 58.735 80.1962 57.5875 80.8645 56.44C82.9139 57.035 85.0079 57.5025 87.0574 58.225C87.6366 58.48 88.0821 59.2025 88.6168 59.67Z" fill="#EDA55D"/>
<path d="M68.4341 33.745C69.8598 32.3425 71.7756 32.0025 73.6914 32.0875C76.4091 32.1725 79.0823 32.0875 81.8001 32.13C83.8941 32.13 84.9188 33.2775 85.0525 35.36C85.2307 38.3775 84.6515 41.225 83.7159 44.03C82.9139 43.2225 82.2902 42.16 81.3546 41.6075C78.1022 39.695 74.4933 39.1425 70.7508 39.4825C70.6172 39.3975 70.5281 39.3125 70.3944 39.27C68.4341 38.8875 67.3648 37.5275 67.8103 35.5725C67.8994 34.8925 68.1668 34.425 68.4341 33.745Z" fill="#1C1C1C"/>
<path d="M70.7063 39.1C74.4488 38.8025 78.0576 39.3125 81.31 41.0975C82.2457 41.6075 82.914 42.585 83.6714 43.3925C83.6268 43.5625 83.5823 43.69 83.5377 43.86C82.6466 43.4775 81.8001 42.9675 80.8645 42.7975C78.325 42.415 75.7854 42.1175 73.2459 41.905C72.1766 41.82 70.7063 42.925 70.7063 43.945C70.7063 46.1975 70.7063 48.45 71.0182 50.7025C71.1518 51.7225 71.9538 52.7 72.4439 53.6775C71.8202 53.465 71.241 53.2525 70.6172 53.04C69.7261 52.19 68.7014 51.4675 67.8994 50.5325C66.8302 49.2575 66.3401 47.7275 66.3401 46.07C66.3401 45.4325 66.251 44.795 66.2064 44.2C66.4737 43.6475 66.5628 42.925 66.9638 42.5C68.1668 41.31 69.4588 40.2475 70.7063 39.1Z" fill="#E5AE78"/>
<path d="M68.2113 73.27C68.9242 72.93 69.2806 72.335 69.2361 71.6125C69.1915 68.595 69.1915 65.62 69.1024 62.6025C69.0579 61.455 68.5232 60.435 67.5876 59.67C66.7411 58.565 65.3599 58.31 64.2015 57.7575C65.85 57.29 67.4985 56.8225 69.147 56.355C69.637 57.3325 70.0826 57.8425 70.6172 58.7775C71.5528 60.5625 71.8647 60.9025 73.5132 59.67C73.5577 60.265 73.335 61.115 74.0478 61.4975C74.0478 62.56 74.0478 63.665 74.0033 64.7275C73.8696 67.575 73.6914 70.4225 73.5132 73.27C71.7311 73.27 69.9489 73.27 68.2113 73.27Z" fill="#EDA55D"/>
<path d="M73.4686 59.84C71.8202 61.0725 71.5529 60.9875 70.6172 59.245C70.1271 58.2675 69.5925 57.3325 69.1024 56.355C69.5925 55.8875 69.5925 54.9949 70.5727 54.9949C70.84 55.1649 71.1073 55.335 71.3746 55.505C72.533 56.5675 73.736 57.2475 74.9835 58.3525C76.231 57.205 77.3893 56.5675 78.5477 55.505C78.8151 55.2925 79.0378 55.08 79.3051 54.825C80.1962 55.0375 80.5972 55.8875 80.9982 56.525C80.3299 57.6725 79.6616 58.8625 79.0378 60.01C78.4586 60.9875 78.0131 60.9025 77.0775 60.265C76.8547 60.1375 76.6765 59.9675 76.4537 59.84C74.6716 58.5225 75.1617 58.565 73.4686 59.84Z" fill="#D38D54"/>
<path d="M70.7063 39.185C69.4588 40.3325 68.1668 41.4375 66.9638 42.6275C66.5628 43.0525 66.4292 43.775 66.2064 44.3275C65.3599 41.99 64.647 39.6525 64.9143 37.1025C65.0926 35.2325 66.6965 33.7025 68.5677 33.5325C68.345 34.17 68.0331 34.8075 67.8549 35.4875C67.4539 37.3575 68.345 38.59 70.3053 38.9725C70.4835 39.015 70.5726 39.1425 70.7063 39.185Z" fill="black"/>
<path d="M73.2904 73.27C73.4686 70.4225 73.6914 67.575 73.825 64.7275C73.8696 63.665 73.8696 62.56 73.8696 61.4975C74.5379 61.4975 75.2062 61.4975 75.8745 61.54C76.0082 63.0275 76.1418 64.5575 76.2309 66.045C76.32 67.9575 76.3646 69.8275 76.4537 71.74C76.4983 72.25 76.5428 72.76 76.6319 73.3125C75.5181 73.27 74.4042 73.27 73.2904 73.27Z" fill="#D38D54"/>
<path d="M75.8745 61.7525C75.2062 61.7525 74.5379 61.7525 73.9141 61.71C73.1122 61.2425 73.3795 60.4775 73.3349 59.755C75.2507 58.2675 74.7161 58.1825 76.6764 59.755C76.5428 60.52 76.8992 61.37 75.8745 61.7525Z" fill="#969DB6"/>
<path d="M71.3746 55.505C72.4439 55.675 73.5132 55.9725 74.5825 55.9725C75.8745 55.9725 77.2111 55.675 78.5032 55.505C77.3448 56.5675 76.1864 57.63 74.9389 58.7775C73.6914 57.63 72.533 56.5675 71.3746 55.505Z" fill="#E5AF78"/>
</g>
<defs>
<clipPath id="clip0_1_488">
<rect width="89.1069" height="85" fill="white"/>
</clipPath>
</defs>
</svg>
