<svg width="37" height="38" viewBox="0 0 37 38" fill="none" xmlns="http://www.w3.org/2000/svg">
<path opacity="0.1" d="M20.649 37.1429C31.9409 37.1429 41.0947 28.6429 41.0947 18.1576C41.0947 7.67236 31.9409 -0.827637 20.649 -0.827637C9.35718 -0.827637 0.203339 7.67236 0.203339 18.1576C0.203339 28.6429 9.35718 37.1429 20.649 37.1429Z" fill="white"/>
<path d="M20.649 32.924C29.4316 32.924 36.5512 26.3129 36.5512 18.1577C36.5512 10.0025 29.4316 3.39136 20.649 3.39136C11.8665 3.39136 4.74683 10.0025 4.74683 18.1577C4.74683 26.3129 11.8665 32.924 20.649 32.924Z" fill="#1F084D"/>
<path fill-rule="evenodd" clip-rule="evenodd" d="M15.1037 21.1266L13.6838 21.6392L14.3654 19.0899L15.8022 18.5541L17.8763 10.7649H22.9798L21.468 16.49L22.8708 15.9626L22.1892 18.5035L20.7694 19.0309L19.9311 22.2499H27.6153L26.7464 25.5491H13.9349L15.1037 21.1266Z" fill="white"/>
</svg>
