<svg width="177" height="50" viewBox="0 0 177 50" fill="none" xmlns="http://www.w3.org/2000/svg">
<path fill-rule="evenodd" clip-rule="evenodd" d="M9.16999 4.01462C8.68164 3.59901 7.91767 3.93519 7.91767 4.56193V24.3865C7.91767 24.4835 7.89757 24.5794 7.85856 24.6689L3.97915 33.5595C3.83418 33.8918 3.9566 34.2723 4.27799 34.4579C8.29607 36.7787 19.5276 42.8982 21.1184 43.7643C21.2449 43.8332 21.3427 43.9325 21.4106 44.0561L22.9665 46.889C23.0981 47.1286 23.3569 47.2786 23.6389 47.2786H30.7543C31.0404 47.2786 31.3023 47.1242 31.432 46.8792L32.925 44.0582C32.9911 43.9332 33.0933 43.8292 33.2193 43.7585L49.7953 34.4578C50.1231 34.2739 50.2595 33.8859 50.1147 33.5487L46.3023 24.6671C46.2644 24.5788 46.2449 24.4842 46.2449 24.3887V4.63139C46.2449 3.99375 45.4539 3.6623 44.9674 4.09607L31.4394 16.1574C31.2988 16.2828 31.114 16.3525 30.9222 16.3525H23.4809C23.2879 16.3525 23.1063 16.2858 22.9653 16.1591C21.6128 14.9441 14.1798 8.27812 9.16999 4.01462ZM19.3245 18.7695C19.747 19.1364 19.615 19.8028 19.0818 19.9951L12.6927 22.299C12.1956 22.4783 11.6652 22.1253 11.6652 21.6153V13.7631C11.6652 13.13 12.4465 12.7968 12.9354 13.2213L19.3245 18.7695ZM42.7127 21.6612C42.7127 22.1582 42.2093 22.5053 41.7214 22.3397C39.9855 21.7507 36.7256 20.6155 34.9572 19.9983C34.412 19.808 34.2815 19.1251 34.7203 18.7605L41.455 13.1636C41.9475 12.7543 42.7127 13.0903 42.7127 13.7159V21.6612ZM26.7684 20.8045C26.9374 20.7441 27.1232 20.7434 27.2927 20.8024L37.2232 24.2626C37.6415 24.4084 37.8407 24.8664 37.6546 25.2547L28.9373 43.4419C28.8131 43.7009 28.5435 43.8668 28.2467 43.8668H25.9863C25.6883 43.8668 25.4178 43.6996 25.2944 43.4391L16.671 25.2472C16.4881 24.8615 16.6843 24.4077 17.0979 24.26L26.7684 20.8045ZM11.5599 26.7408C11.8372 26.1921 12.6511 26.1923 12.928 26.7412L18.2682 37.3253C18.602 37.9869 17.8237 38.6543 17.1771 38.2608L9.00232 33.2856C8.67558 33.0867 8.55634 32.6839 8.72526 32.3497L11.5599 26.7408ZM45.4155 31.9405C45.5963 32.2728 45.4857 32.6827 45.1596 32.8889L36.8401 38.1487C36.1918 38.5585 35.3961 37.8818 35.741 37.214L41.1866 26.671C41.4627 26.1363 42.2537 26.1283 42.5415 26.6573L45.4155 31.9405Z" fill="url(#paint0_linear_1_260)"/>
<path d="M153.739 12.1168L160.492 21.6755L167.205 12.1168H172.889L163.236 25.151L172.583 37.8232H166.898L160.49 28.6272L154.043 37.8232H148.321L157.667 25.151L148.014 12.1174L153.739 12.1168Z" fill="white"/>
<path d="M146.771 33.4436V37.8233H128.426V12.1168H146.434V16.4985H133.559V22.6902H144.686V26.7453H133.559V33.4436H146.771Z" fill="white"/>
<path d="M105.727 37.8233V12.1168H110.963V33.4436H124.694V37.8233H105.727Z" fill="white"/>
<path d="M89.0526 38.1187C87.1382 38.1187 85.3884 37.7487 83.8077 37.0038C82.2241 36.2623 80.8651 35.2765 79.7293 34.0471C78.5935 32.8176 77.7198 31.4115 77.108 29.8281C76.4947 28.2461 76.1888 26.6271 76.1888 24.9704C76.1888 23.2424 76.513 21.5864 77.165 20.0037C77.8164 18.4203 78.7209 17.0219 79.8837 15.8029C81.0437 14.5853 82.4158 13.6176 84.0002 12.8985C85.5802 12.1808 87.3036 11.8213 89.1683 11.8213C91.0812 11.8213 92.831 12.2053 94.4132 12.9725C95.9954 13.7398 97.3485 14.7438 98.4718 15.9851C99.5952 17.2264 100.463 18.6402 101.076 20.2215C101.69 21.8049 101.996 23.4121 101.996 25.0437C101.996 26.7737 101.671 28.4213 101.019 29.9936C100.367 31.563 99.4693 32.951 98.3196 34.1553C97.1707 35.361 95.8051 36.3245 94.2215 37.0429C92.6378 37.7613 90.9151 38.1187 89.0526 38.1187ZM81.5091 24.9704C81.5091 26.0902 81.6818 27.1744 82.0272 28.221C82.3712 29.2682 82.8681 30.1947 83.5201 30.9975C84.1714 31.8004 84.9684 32.4455 85.9132 32.9321C86.8587 33.4187 87.9293 33.6617 89.1295 33.6617C90.3545 33.6617 91.4325 33.4132 92.3656 32.914C93.2957 32.4162 94.0831 31.7522 94.7206 30.9235C95.3572 30.0955 95.8432 29.1642 96.1747 28.1295C96.5062 27.0955 96.673 26.0434 96.673 24.9704C96.673 23.8505 96.4945 22.7677 96.1381 21.7197C95.7795 20.6732 95.276 19.7475 94.6269 18.9446C93.9741 18.1403 93.1837 17.5015 92.2514 17.026C91.3213 16.552 90.2675 16.3146 89.0951 16.3146C87.87 16.3146 86.7921 16.5639 85.859 17.063C84.9274 17.5629 84.1363 18.2199 83.485 19.036C82.8351 19.8515 82.3419 20.7772 82.0111 21.8112C81.6767 22.8466 81.5091 23.8994 81.5091 24.9704Z" fill="white"/>
<path d="M56.6141 12.1258L74.9591 12.1439L74.9543 16.5254L61.9169 16.5125L61.9096 23.1385L72.755 23.1492L72.7505 27.204L61.9052 27.1933L61.8936 37.8375L56.586 37.8322L56.6141 12.1258Z" fill="white"/>
<defs>
<linearGradient id="paint0_linear_1_260" x1="2.57338" y1="31.0596" x2="50.9575" y2="31.0596" gradientUnits="userSpaceOnUse">
<stop stop-color="#EA413A"/>
<stop offset="0.160871" stop-color="#EF6C3D"/>
<stop offset="0.314515" stop-color="#F0753D"/>
<stop offset="0.508067" stop-color="#F1813F"/>
<stop offset="1" stop-color="#F4913F"/>
</linearGradient>
</defs>
</svg>
